<svg xmlns="http://www.w3.org/2000/svg" width="64" height="64" viewBox="0 0 64 64" shape-rendering="crispEdges">
  <rect width="64" height="64" fill="#bdbdbd"/>
  <rect x="4" y="4" width="56" height="56" fill="#c6c6c6"/>
  <rect x="4" y="4" width="56" height="3" fill="#ffffff"/>
  <rect x="4" y="4" width="3" height="56" fill="#ffffff"/>
  <rect x="4" y="57" width="56" height="3" fill="#7b7b7b"/>
  <rect x="57" y="4" width="3" height="56" fill="#7b7b7b"/>

  <rect x="10" y="10" width="14" height="14" fill="#bdbdbd"/>
  <rect x="10" y="10" width="14" height="2" fill="#ffffff"/>
  <rect x="10" y="10" width="2" height="14" fill="#ffffff"/>
  <rect x="10" y="22" width="14" height="2" fill="#7b7b7b"/>
  <rect x="22" y="10" width="2" height="14" fill="#7b7b7b"/>

  <rect x="26" y="10" width="14" height="14" fill="#bdbdbd"/>
  <rect x="26" y="10" width="14" height="2" fill="#ffffff"/>
  <rect x="26" y="10" width="2" height="14" fill="#ffffff"/>
  <rect x="26" y="22" width="14" height="2" fill="#7b7b7b"/>
  <rect x="38" y="10" width="2" height="14" fill="#7b7b7b"/>

  <rect x="42" y="10" width="14" height="14" fill="#bdbdbd"/>
  <rect x="42" y="10" width="14" height="2" fill="#ffffff"/>
  <rect x="42" y="10" width="2" height="14" fill="#ffffff"/>
  <rect x="42" y="22" width="14" height="2" fill="#7b7b7b"/>
  <rect x="54" y="10" width="2" height="14" fill="#7b7b7b"/>

  <rect x="10" y="26" width="14" height="14" fill="#bdbdbd"/>
  <rect x="10" y="26" width="14" height="2" fill="#ffffff"/>
  <rect x="10" y="26" width="2" height="14" fill="#ffffff"/>
  <rect x="10" y="38" width="14" height="2" fill="#7b7b7b"/>
  <rect x="22" y="26" width="2" height="14" fill="#7b7b7b"/>

  <rect x="26" y="26" width="14" height="14" fill="#bdbdbd"/>
  <rect x="26" y="26" width="14" height="2" fill="#ffffff"/>
  <rect x="26" y="26" width="2" height="14" fill="#ffffff"/>
  <rect x="26" y="38" width="14" height="2" fill="#7b7b7b"/>
  <rect x="38" y="26" width="2" height="14" fill="#7b7b7b"/>

  <rect x="42" y="26" width="14" height="14" fill="#bdbdbd"/>
  <rect x="42" y="26" width="14" height="2" fill="#ffffff"/>
  <rect x="42" y="26" width="2" height="14" fill="#ffffff"/>
  <rect x="42" y="38" width="14" height="2" fill="#7b7b7b"/>
  <rect x="54" y="26" width="2" height="14" fill="#7b7b7b"/>

  <rect x="10" y="42" width="14" height="14" fill="#bdbdbd"/>
  <rect x="10" y="42" width="14" height="2" fill="#ffffff"/>
  <rect x="10" y="42" width="2" height="14" fill="#ffffff"/>
  <rect x="10" y="54" width="14" height="2" fill="#7b7b7b"/>
  <rect x="22" y="42" width="2" height="14" fill="#7b7b7b"/>

  <rect x="26" y="42" width="14" height="14" fill="#bdbdbd"/>
  <rect x="26" y="42" width="14" height="2" fill="#ffffff"/>
  <rect x="26" y="42" width="2" height="14" fill="#ffffff"/>
  <rect x="26" y="54" width="14" height="2" fill="#7b7b7b"/>
  <rect x="38" y="42" width="2" height="14" fill="#7b7b7b"/>

  <rect x="42" y="42" width="14" height="14" fill="#bdbdbd"/>
  <rect x="42" y="42" width="14" height="2" fill="#ffffff"/>
  <rect x="42" y="42" width="2" height="14" fill="#ffffff"/>
  <rect x="42" y="54" width="14" height="2" fill="#7b7b7b"/>
  <rect x="54" y="42" width="2" height="14" fill="#7b7b7b"/>

  <rect x="29" y="28" width="7" height="7" fill="#000000"/>
  <rect x="31" y="23" width="3" height="17" fill="#000000"/>
  <rect x="24" y="30" width="17" height="3" fill="#000000"/>
  <rect x="26" y="25" width="3" height="3" fill="#000000"/>
  <rect x="37" y="25" width="3" height="3" fill="#000000"/>
  <rect x="26" y="36" width="3" height="3" fill="#000000"/>
  <rect x="37" y="36" width="3" height="3" fill="#000000"/>
  <rect x="31" y="30" width="3" height="3" fill="#ff0000"/>
  <rect x="29" y="28" width="2" height="2" fill="#ffffff"/>
</svg>
